<?xml version="1.0" encoding="UTF-8" standalone="no"?>
<!-- Created with Inkscape (http://www.inkscape.org/) -->

<svg
   width="512"
   height="512"
   viewBox="0 0 512 512"
   version="1.1"
   id="svg5"
   inkscape:version="1.4 (86a8ad7, 2024-10-11)"
   xml:space="preserve"
   sodipodi:docname="Jump.svg"
   xmlns:inkscape="http://www.inkscape.org/namespaces/inkscape"
   xmlns:sodipodi="http://sodipodi.sourceforge.net/DTD/sodipodi-0.dtd"
   xmlns="http://www.w3.org/2000/svg"
   xmlns:svg="http://www.w3.org/2000/svg"><sodipodi:namedview
     id="namedview7"
     pagecolor="#505050"
     bordercolor="#ffffff"
     borderopacity="1"
     inkscape:showpageshadow="0"
     inkscape:pageopacity="0"
     inkscape:pagecheckerboard="1"
     inkscape:deskcolor="#505050"
     inkscape:document-units="px"
     showgrid="true"
     inkscape:lockguides="true"
     inkscape:zoom="0.8095703"
     inkscape:cx="237.78046"
     inkscape:cy="394.6538"
     inkscape:window-width="3840"
     inkscape:window-height="2054"
     inkscape:window-x="2869"
     inkscape:window-y="-11"
     inkscape:window-maximized="1"
     inkscape:current-layer="layer1"><inkscape:grid
       type="xygrid"
       id="grid234"
       empspacing="4"
       originx="0"
       originy="0"
       spacingy="1"
       spacingx="1"
       units="px" /></sodipodi:namedview><defs
     id="defs2" /><g
     inkscape:label="Layer 1"
     inkscape:groupmode="layer"
     id="layer1"><path
       d="m 386.27771,346.45899 83.33329,36 -51.66663,55.00001 H 238.50001 l -51.66664,-55.00001 82.77773,-36 h 25.55555 l -32.22221,-56.00001 56.66664,9 q 2.22222,-13 2.5,-26.25 0.27778,-13.25 -3.88889,-32.75001 -4.16666,-19.5 -13.05555,-36.25 -8.88888,-16.75 -28.33332,-34.50001 -19.44443,-17.75 -47.22219,-29.75 -79.44441,-35.5 -187.22213,-8.5 29.44442,-29.00001 67.49997,-43.250011 38.05554,-14.25 72.49996,-13.75 34.44442,0.5 66.66663,11 33.88887,11.5 58.05553,31.000011 24.16665,19.5 36.38887,42 12.22221,22.50001 17.22221,49.00001 5,26.5 3.05555,50.25001 -1.94444,23.75 -8.05555,47.75 l 54.44442,8.5 -39.44443,32.50001 z m -4.44444,65.00001 30.55554,-31.00001 -39.99998,-18 h -20.55555 l -32.2222,26.5 -15.55555,-26.5 h -19.99999 l -40.55553,18 31.11109,31.00001 z"
       id="path1"
       style="fill:#ffffff;stroke-width:0.527046" /></g></svg>
